<!-- Generator: Adobe Illustrator 24.3.0, SVG Export Plug-In  -->
<svg version="1.1" xmlns="http://www.w3.org/2000/svg" xmlns:xlink="http://www.w3.org/1999/xlink" x="0px" y="0px" width="128.5px"
	 height="163.5px" viewBox="0 0 128.5 163.5" style="overflow:visible;enable-background:new 0 0 128.5 163.5;"
	 xml:space="preserve">
<style type="text/css">
	.st0{fill:#FFFFFF;}
</style>
<defs>
</defs>
<g>
	<path d="M123.3,67.9c-4.6-8.7-11.3-11.4-14.8-12.9c-0.7-0.3-1.5-0.5-2.4-0.5c-0.9,0-1.7,0.2-2.5,0.6c-0.3-0.8-0.8-1.7-1.3-2.5
		c-4.7-7.9-11.2-8.8-13.9-8.8c-0.8,0-1.6,0.1-2.3,0.2c-0.9,0.2-1.8,0.6-2.6,1.3c-0.3-0.6-0.6-1.2-1-1.7c-3.7-4.7-8-5.7-10.9-5.7
		c-3.8,0-6.8,1.6-8.4,2.7C61.6,6.7,59.8,5.5,57.8,3.6c-3.1-3-6.5-3.6-9.3-3.6c-5.5,0-11.5,3.1-13.2,9.5c-0.8,3.2-0.2,26.1-1.9,66.8
		c-0.4-0.4-0.7-0.7-1.1-1.1c-4.7-4.7-11.1-7.4-17.2-7.4c-2.8,0-5.5,0.6-8.1,1.7c-1.3,0.6-5.4,2.4-6.7,6.3c-1.2,3.6,0.5,6.7,1.6,8.8
		c0.3,0.6,0.7,1.2,0.9,1.7c1.1,2.9,2.9,4.2,4.4,5.2c1.6,1.2,4.1,3,8.4,10.3c3.6,6.2,5.3,10.2,6.9,14c1.8,4.3,3.5,8.3,7.3,14.2
		c4.4,6.9,7.9,9.5,10.7,11.6c1.9,1.4,3.2,2.4,4.8,4.8c2,3,2,5.1,1.9,7.7c0,0.5,0,1,0,1.4c0,4.7,3.6,8,8.7,8l55.4,0
		c1.6,0,3.2-0.8,4.2-2c1.1-1.2,1.6-2.9,1.4-4.5c-0.2-1.5-0.8-9.1,2-15.3c4.2-9.3,6.1-22.4,8.5-38.9C130,85.3,127.6,76.1,123.3,67.9z
		 M122.3,102.1c-2.3,16.3-4.2,28.9-8,37.5c-3.3,7.2-2.7,15.6-2.4,18c0,0.4-0.2,0.7-0.6,0.7l-55.1,0c-1,0-3.7-0.2-3.7-2.8
		c0-3.3,0.6-7-2.7-12c-4.7-7-8.4-5.4-15.4-16.3c-7-10.9-6.3-14.8-14.1-28.1C12.4,85.9,9.2,88.2,7.7,84.3c-1.6-3.9-5.4-7,1.6-10.1
		c7-3.1,14.8,0,19.4,4.7C32,82.2,35.3,86.7,37,89c0.3,0.5,1.1,0.3,1.1-0.3c0.4-11.4,1.7-71.8,2.4-76.7c1-7.1,10.7-8.8,14.3-4
		c2.2,2.9,4.6,64.6,4.8,65.9c0.1,0.4,0.1,0.5,0.1,0.5c0.3,0.3,5.2,0.5,5.2,0.2C65,70,65,49.9,65,47.2c0.1-1.2,0.4-1.8,0.5-2
		c1.3-1,7.8-5.4,13.1,1.4c3.5,4.6,1.9,30,3.1,30.2L86,78c0.1,0,0.2-0.1,0.2-0.2L86,50.4c0-0.3,0.9-1.4,1.2-1.5
		c1.7-0.3,6.8-0.4,10.7,6.1c2.2,3.8,2.5,6.4,2.7,12.6c0.2,5.6,0.3,11.4,0.4,12.9c0.1,0.4,0.6,0.5,0.9,0.6l3.2,0.9
		c0.4,0.1,0.9,0,0.9-0.4l-0.5-21.5c0-0.4,0.5-0.7,0.9-0.6c2.6,1.1,9,4.7,12,10.6C122.3,77.9,124.6,85.8,122.3,102.1z"/>
	<path class="st0" d="M122.3,102.1c-2.3,16.3-4.2,28.9-8,37.5c-3.3,7.2-2.7,15.6-2.4,18c0,0.4-0.2,0.7-0.6,0.7l-55.1,0
		c-1,0-3.7-0.2-3.7-2.8c0-3.3,0.6-7-2.7-12c-4.7-7-8.4-5.4-15.4-16.3c-7-10.9-6.3-14.8-14.1-28.1C12.4,85.9,9.2,88.2,7.7,84.3
		c-1.6-3.9-5.4-7,1.6-10.1c7-3.1,14.8,0,19.4,4.7C32,82.2,35.3,86.7,37,89c0.3,0.5,1.1,0.3,1.1-0.3c0.4-11.4,1.7-71.8,2.4-76.7
		c1-7.1,10.7-8.8,14.3-4c2.2,2.9,4.6,64.6,4.8,65.9c0.1,0.4,0.1,0.5,0.1,0.5c0.3,0.3,5.2,0.5,5.2,0.2C65,70,65,49.9,65,47.2
		c0.1-1.2,0.4-1.8,0.5-2c1.3-1,7.8-5.4,13.1,1.4c3.5,4.6,1.9,30,3.1,30.2L86,78c0.1,0,0.2-0.1,0.2-0.2L86,50.4
		c0-0.3,0.9-1.4,1.2-1.5c1.7-0.3,6.8-0.4,10.7,6.1c2.2,3.8,2.5,6.4,2.7,12.6c0.2,5.6,0.3,11.4,0.4,12.9c0.1,0.4,0.6,0.5,0.9,0.6
		l3.2,0.9c0.4,0.1,0.9,0,0.9-0.4l-0.5-21.5c0-0.4,0.5-0.7,0.9-0.6c2.6,1.1,9,4.7,12,10.6C122.3,77.9,124.6,85.8,122.3,102.1z"/>
</g>
</svg>
