<svg enable-background="new 0 0 547.32 649.74" height="649.74" viewBox="0 0 547.32 649.74" width="547.32" xmlns="http://www.w3.org/2000/svg"><g style="fill:#fff;stroke:#000;stroke-width:34.302;stroke-linecap:round;stroke-linejoin:round;stroke-miterlimit:10"><path d="m486.17 575.34c27.4-8.38 45.64-34.4 43.88-63-2.64-42.88-3.28-101.15-16.01-183.41-5.42-35.02-35.53-116.21-35.53-116.21l-7.39-24.19c-6.47-21.16-27.71-35.32-49.39-30.89-24.87 5.08-39.4 30.24-32.16 53.92l-10.99-35.94c-6.47-21.16-27.71-35.32-49.39-30.89-24.87 5.08-39.4 30.24-32.16 53.92l-9.08-29.7c-6.47-21.16-27.71-35.32-49.39-30.89-24.87 5.08-39.4 30.24-32.16 53.92l-42.7-139.66c-7.17-23.46-30.73-39.17-54.77-34.26-27.58 5.64-43.7 33.53-35.67 59.8l99.94 326.88c-.87-.76-1.74-1.51-2.68-2.41-40.47-39.34-60.54-62.65-60.54-62.65l-15.49-15.4c-15.72-16.21-26.62-20.85-45.83-16.05-11.94 2.98-20.18 9.4-26.43 22.08-10.03 20.37-3.13 32.67 3.18 43.54l2.29 3.49s61.84 70.1 140.32 146.19c33.09 32.07 54.94 59.64 70.5 82.19 15.4 22.32 43.38 32.09 69.31 24.16z"/><path d="m297.02 198.64 24.39 79.76"/><path d="m206.39 191.97 34 111.2"/><path d="m389.56 211.55 12.87 42.08"/></g></svg>