<svg width="343" height="30" viewBox="0 0 343 30" fill="none" xmlns="http://www.w3.org/2000/svg">
<g clip-path="url(#clip0_4_45)">
<path d="M23.14 28.03C23.14 28.28 23.06 28.49 22.9 28.65C22.74 28.81 22.54 28.89 22.32 28.89H16.4C15.8 28.89 15.36 28.64 15.09 28.14L9.5 18.76H7.05V27.95C7.05 28.23 6.96 28.45 6.77 28.62C6.58 28.8 6.35 28.88 6.08 28.88H0.94C0.66 28.88 0.44 28.79 0.27 28.62C0.09 28.46 0 28.23 0 27.96V3.62002C0 3.35002 0.09 3.11002 0.26 2.93002C0.43 2.74002 0.66 2.65002 0.93 2.65002H6.07C6.34 2.65002 6.58 2.74002 6.76 2.93002C6.94 3.12002 7.04 3.35002 7.04 3.62002V12.51H9.14L14.54 3.40002C14.86 2.90002 15.34 2.65002 15.96 2.65002H21.7C21.92 2.65002 22.11 2.73002 22.26 2.88002C22.41 3.03002 22.48 3.22002 22.48 3.44002C22.48 3.62002 22.43 3.77002 22.33 3.89002L15.39 15.29L23 27.63C23.1 27.72 23.14 27.86 23.14 28.03V28.03Z" fill="white"/>
<path d="M28.37 28.5C27.28 27.99 26.43 27.28 25.82 26.38C25.21 25.48 24.9 24.49 24.9 23.42C24.9 21.72 25.61 20.34 27.02 19.28C28.43 18.22 30.38 17.49 32.85 17.09L37.5 16.38V15.93C37.5 15.01 37.31 14.33 36.94 13.91C36.56 13.49 35.93 13.27 35.03 13.27C34.53 13.27 34.11 13.36 33.77 13.53C33.43 13.71 33.05 13.97 32.63 14.32C32.3 14.6 32.02 14.8 31.77 14.92C31.67 15.09 31.55 15.18 31.39 15.18H27.04C26.79 15.18 26.58 15.1 26.42 14.94C26.26 14.78 26.19 14.58 26.21 14.36C26.23 13.68 26.57 12.93 27.22 12.09C27.87 11.25 28.86 10.53 30.18 9.93003C31.5 9.33003 33.14 9.03003 35.09 9.03003C38.19 9.03003 40.49 9.71003 41.99 11.07C43.49 12.43 44.24 14.28 44.24 16.6V27.96C44.24 28.21 44.15 28.43 43.98 28.62C43.8 28.81 43.58 28.9 43.31 28.9H38.7C38.45 28.9 38.23 28.81 38.04 28.62C37.85 28.43 37.76 28.21 37.76 27.96V26.65C37.21 27.43 36.45 28.06 35.47 28.54C34.49 29.03 33.33 29.27 31.98 29.27C30.66 29.27 29.46 29.01 28.37 28.5V28.5ZM36.54 23.76C37.23 23.04 37.57 21.99 37.57 20.61V20.16L34.46 20.68C32.36 21.08 31.31 21.83 31.31 22.93C31.31 23.51 31.55 23.97 32.04 24.32C32.53 24.67 33.13 24.85 33.86 24.85C34.96 24.85 35.86 24.48 36.54 23.76V23.76Z" fill="white"/>
<path d="M68.47 28.11C68.47 28.34 68.4 28.52 68.24 28.67C68.09 28.82 67.89 28.9 67.64 28.9H62.05C61.6 28.9 61.24 28.7 60.96 28.3L56.69 21.59H54.81V27.97C54.81 28.22 54.72 28.44 54.55 28.63C54.38 28.82 54.15 28.91 53.88 28.91H49.27C49.02 28.91 48.8 28.82 48.61 28.63C48.42 28.44 48.33 28.22 48.33 27.97V10.33C48.33 10.06 48.42 9.83001 48.61 9.66001C48.8 9.49001 49.02 9.40001 49.27 9.40001H53.88C54.15 9.40001 54.38 9.49001 54.55 9.66001C54.72 9.83001 54.81 10.06 54.81 10.33V16.44H56.76L60.7 9.99001C60.97 9.59001 61.32 9.39001 61.75 9.39001H66.77C67.02 9.39001 67.23 9.47001 67.39 9.62001C67.55 9.77001 67.63 9.96001 67.63 10.18C67.63 10.28 67.57 10.46 67.44 10.7L62.38 18.87L68.3 27.61C68.42 27.75 68.47 27.91 68.47 28.11Z" fill="white"/>
<path d="M79.48 28.61C79.29 28.42 79.2 28.2 79.2 27.95V10.33C79.2 10.06 79.29 9.83002 79.48 9.66002C79.67 9.49002 79.89 9.40002 80.14 9.40002H97.58C97.85 9.40002 98.08 9.49002 98.25 9.66002C98.42 9.83002 98.51 10.06 98.51 10.33V27.95C98.51 28.2 98.42 28.42 98.25 28.61C98.07 28.8 97.85 28.89 97.58 28.89H92.89C92.64 28.89 92.42 28.8 92.23 28.61C92.04 28.42 91.95 28.2 91.95 27.95V14.49H85.8V27.95C85.8 28.23 85.71 28.45 85.52 28.62C85.33 28.8 85.1 28.88 84.83 28.88H80.14C79.89 28.89 79.67 28.8 79.48 28.61V28.61Z" fill="white"/>
<path d="M105.09 27.08C103.4 25.62 102.48 23.54 102.33 20.84C102.3 20.52 102.29 19.95 102.29 19.15C102.29 18.35 102.3 17.79 102.33 17.46C102.48 14.81 103.42 12.74 105.16 11.25C106.9 9.76002 109.29 9.02002 112.34 9.02002C115.39 9.02002 117.78 9.76002 119.52 11.25C121.26 12.74 122.2 14.81 122.35 17.46C122.4 18.11 122.43 18.67 122.43 19.15C122.43 19.63 122.4 20.19 122.35 20.84C122.2 23.54 121.28 25.62 119.59 27.08C117.9 28.54 115.48 29.27 112.33 29.27C109.2 29.27 106.78 28.54 105.09 27.08ZM114.64 23.59C115.14 22.95 115.43 21.97 115.5 20.65C115.52 20.4 115.54 19.9 115.54 19.15C115.54 18.4 115.53 17.9 115.5 17.65C115.42 16.35 115.14 15.38 114.64 14.73C114.14 14.08 113.38 13.75 112.35 13.75C111.32 13.75 110.56 14.08 110.06 14.73C109.56 15.38 109.27 16.35 109.2 17.65L109.16 19.15L109.2 20.65C109.28 21.98 109.56 22.96 110.06 23.59C110.56 24.23 111.32 24.55 112.35 24.55C113.37 24.54 114.14 24.23 114.64 23.59Z" fill="white"/>
<path d="M129.07 28.35C127.74 27.74 126.79 27 126.2 26.14C125.61 25.28 125.27 24.41 125.17 23.53V23.45C125.17 23.3 125.25 23.16 125.4 23.04C125.55 22.92 125.7 22.85 125.85 22.85H130.43C130.7 22.85 130.91 22.89 131.05 22.98C131.19 23.07 131.32 23.21 131.44 23.41C131.64 23.86 131.98 24.19 132.45 24.4C132.92 24.61 133.57 24.72 134.4 24.72C135.25 24.72 135.91 24.56 136.37 24.25C136.83 23.94 137.06 23.46 137.06 22.81C137.06 22.21 136.88 21.75 136.52 21.44C136.16 21.13 135.55 20.97 134.7 20.97H132.6C132.38 20.97 132.18 20.89 132.02 20.73C131.86 20.57 131.78 20.37 131.78 20.15V17.9C131.78 17.67 131.85 17.48 132.01 17.32C132.16 17.16 132.36 17.08 132.61 17.08H134.6C135.35 17.08 135.89 16.95 136.23 16.69C136.57 16.43 136.74 16.02 136.74 15.47C136.74 14.92 136.54 14.47 136.14 14.12C135.74 13.77 135.11 13.6 134.26 13.6C133.43 13.6 132.83 13.71 132.44 13.94C132.05 14.17 131.73 14.54 131.48 15.06C131.36 15.26 131.22 15.4 131.09 15.49C130.95 15.58 130.75 15.62 130.47 15.62H126.04C125.84 15.62 125.67 15.55 125.53 15.41C125.39 15.27 125.34 15.12 125.36 14.94C125.46 13.99 125.81 13.06 126.41 12.17C127.01 11.27 127.96 10.52 129.26 9.92002C130.56 9.32002 132.25 9.02002 134.32 9.02002C137.34 9.02002 139.56 9.53002 140.96 10.56C142.36 11.59 143.06 12.92 143.06 14.57C143.06 16.5 142.25 17.85 140.62 18.62C142.57 19.32 143.57 20.91 143.62 23.38C143.62 25.18 142.79 26.61 141.13 27.67C139.47 28.73 137.2 29.26 134.32 29.26C132.15 29.27 130.4 28.96 129.07 28.35V28.35Z" fill="white"/>
<path d="M149.38 28.5C148.29 27.99 147.44 27.28 146.83 26.38C146.22 25.48 145.91 24.49 145.91 23.42C145.91 21.72 146.62 20.34 148.03 19.28C149.44 18.22 151.39 17.49 153.86 17.09L158.51 16.38V15.93C158.51 15.01 158.32 14.33 157.95 13.91C157.57 13.49 156.94 13.27 156.04 13.27C155.54 13.27 155.12 13.36 154.78 13.53C154.44 13.71 154.06 13.97 153.64 14.32C153.31 14.6 153.03 14.8 152.78 14.92C152.68 15.09 152.56 15.18 152.4 15.18H148.05C147.8 15.18 147.59 15.1 147.43 14.94C147.27 14.78 147.2 14.58 147.22 14.36C147.24 13.68 147.58 12.93 148.23 12.09C148.88 11.25 149.87 10.53 151.19 9.93003C152.51 9.33003 154.15 9.03003 156.1 9.03003C159.2 9.03003 161.5 9.71003 163 11.07C164.5 12.43 165.25 14.28 165.25 16.6V27.96C165.25 28.21 165.16 28.43 164.99 28.62C164.81 28.81 164.59 28.9 164.32 28.9H159.71C159.46 28.9 159.24 28.81 159.05 28.62C158.86 28.43 158.77 28.21 158.77 27.96V26.65C158.22 27.43 157.46 28.06 156.48 28.54C155.5 29.03 154.34 29.27 152.99 29.27C151.67 29.27 150.47 29.01 149.38 28.5V28.5ZM157.55 23.76C158.24 23.04 158.58 21.99 158.58 20.61V20.16L155.47 20.68C153.37 21.08 152.32 21.83 152.32 22.93C152.32 23.51 152.56 23.97 153.05 24.32C153.54 24.67 154.14 24.85 154.87 24.85C155.97 24.85 156.87 24.48 157.55 23.76V23.76Z" fill="white"/>
<path d="M188.92 20.12C188.92 20.45 188.9 20.88 188.85 21.43C188.7 23.93 187.78 25.86 186.09 27.22C184.4 28.58 181.98 29.26 178.83 29.26C175.43 29.26 172.95 28.45 171.39 26.82C169.83 25.2 168.96 22.61 168.78 19.06L168.74 16.77L168.78 14.52C168.9 11.1 169.5 8.51 170.56 6.76C171.62 5.01 173.21 3.7 175.32 2.82C177.43 1.95 180.74 1.01 185.24 0.0100037C185.49 -0.0399963 185.73 3.69549e-06 185.95 0.140004C186.18 0.280004 186.3 0.480004 186.33 0.760004L187 4.4C187.05 4.68 187.01 4.92 186.89 5.13C186.76 5.34 186.58 5.47 186.33 5.52C183.05 6.14 180.74 6.67 179.37 7.09C178.01 7.52 176.99 8.13 176.33 8.95C175.67 9.76 175.27 11.02 175.15 12.72C175.72 12.17 176.45 11.72 177.32 11.37C178.2 11.02 179.11 10.85 180.06 10.85C182.78 10.85 184.89 11.54 186.38 12.91C187.87 14.29 188.69 16.21 188.84 18.68C188.9 19.29 188.92 19.77 188.92 20.12V20.12ZM182.02 20.12C182.02 19.5 182.01 19.07 181.98 18.85C181.85 16.4 180.88 15.17 179.06 15.17C176.93 15.17 175.81 16.4 175.68 18.85L175.64 20.12L175.68 21.28C175.73 22.53 176.01 23.46 176.52 24.07C177.03 24.68 177.8 24.99 178.83 24.99C179.85 24.99 180.62 24.68 181.14 24.07C181.65 23.46 181.93 22.53 181.98 21.28C182.01 21.08 182.02 20.7 182.02 20.12V20.12Z" fill="white"/>
<path d="M194.6 27.08C192.91 25.62 191.99 23.54 191.84 20.84C191.81 20.52 191.8 19.95 191.8 19.15C191.8 18.35 191.81 17.79 191.84 17.46C191.99 14.81 192.93 12.74 194.67 11.25C196.41 9.76002 198.8 9.02002 201.85 9.02002C204.9 9.02002 207.29 9.76002 209.03 11.25C210.77 12.74 211.71 14.81 211.86 17.46C211.91 18.11 211.94 18.67 211.94 19.15C211.94 19.63 211.91 20.19 211.86 20.84C211.71 23.54 210.79 25.62 209.1 27.08C207.41 28.54 204.99 29.27 201.84 29.27C198.71 29.27 196.29 28.54 194.6 27.08V27.08ZM204.15 23.59C204.65 22.95 204.94 21.97 205.01 20.65C205.03 20.4 205.05 19.9 205.05 19.15C205.05 18.4 205.04 17.9 205.01 17.65C204.93 16.35 204.65 15.38 204.15 14.73C203.65 14.08 202.89 13.75 201.86 13.75C200.83 13.75 200.07 14.08 199.57 14.73C199.07 15.38 198.78 16.35 198.71 17.65L198.67 19.15L198.71 20.65C198.79 21.98 199.07 22.96 199.57 23.59C200.07 24.23 200.83 24.55 201.86 24.55C202.88 24.54 203.65 24.23 204.15 23.59Z" fill="white"/>
<path d="M220.74 28.63C220.55 28.46 220.46 28.23 220.46 27.96V14.49H214.87C214.59 14.49 214.36 14.4 214.18 14.23C213.99 14.06 213.9 13.83 213.9 13.56V10.33C213.9 10.06 213.99 9.83002 214.18 9.66002C214.37 9.49002 214.6 9.40002 214.87 9.40002H232.57C232.84 9.40002 233.07 9.49002 233.24 9.66002C233.41 9.83002 233.5 10.06 233.5 10.33V13.56C233.5 13.81 233.41 14.03 233.24 14.22C233.06 14.41 232.84 14.5 232.57 14.5H226.95V27.96C226.95 28.21 226.86 28.43 226.69 28.62C226.51 28.81 226.29 28.9 226.02 28.9H221.44C221.16 28.89 220.93 28.81 220.74 28.63Z" fill="white"/>
<path d="M256.03 9.66001C256.22 9.83001 256.31 10.05 256.31 10.3V27.96C256.31 28.21 256.22 28.43 256.05 28.62C255.87 28.81 255.65 28.9 255.37 28.9H250.68C250.4 28.9 250.17 28.81 249.99 28.64C249.8 28.47 249.71 28.24 249.71 27.97V17.79L242.4 28.29C242.12 28.69 241.77 28.89 241.35 28.89H237.15C236.9 28.89 236.68 28.8 236.49 28.61C236.3 28.42 236.21 28.2 236.21 27.95V10.33C236.21 10.06 236.3 9.83001 236.49 9.66001C236.68 9.49001 236.9 9.40001 237.15 9.40001H241.84C242.11 9.40001 242.35 9.49001 242.53 9.66001C242.71 9.83001 242.81 10.06 242.81 10.33V20.49L250.12 9.99001C250.39 9.59001 250.74 9.39001 251.17 9.39001H255.37C255.62 9.39001 255.84 9.48001 256.03 9.66001V9.66001Z" fill="white"/>
<path d="M265.48 28.63C265.29 28.46 265.2 28.23 265.2 27.96V14.49H259.61C259.33 14.49 259.1 14.4 258.92 14.23C258.73 14.06 258.64 13.83 258.64 13.56V10.33C258.64 10.06 258.73 9.83002 258.92 9.66002C259.11 9.49002 259.34 9.40002 259.61 9.40002H277.31C277.58 9.40002 277.81 9.49002 277.98 9.66002C278.15 9.83002 278.24 10.06 278.24 10.33V13.56C278.24 13.81 278.15 14.03 277.98 14.22C277.8 14.41 277.58 14.5 277.31 14.5H271.69V27.96C271.69 28.21 271.6 28.43 271.43 28.62C271.25 28.81 271.03 28.9 270.76 28.9H266.18C265.9 28.89 265.66 28.81 265.48 28.63V28.63Z" fill="white"/>
<path d="M281.23 28.61C281.04 28.42 280.95 28.2 280.95 27.95V10.33C280.95 10.06 281.04 9.83002 281.23 9.66002C281.42 9.49002 281.64 9.40002 281.89 9.40002H286.61C286.88 9.40002 287.11 9.49002 287.29 9.66002C287.46 9.83002 287.55 10.06 287.55 10.33V15.35H291.08C293.58 15.35 295.53 15.96 296.93 17.17C298.33 18.38 299.03 20.05 299.03 22.18C299.03 24.35 298.32 26.02 296.89 27.17C295.46 28.32 293.46 28.9 290.89 28.9H281.89C281.63 28.89 281.41 28.8 281.23 28.61V28.61ZM290.47 24.43C291.39 24.43 292.08 24.26 292.51 23.91C292.94 23.56 293.17 22.99 293.17 22.18C293.17 20.58 292.27 19.78 290.47 19.78H287.43V24.43H290.47Z" fill="white"/>
<path d="M304.25 27C302.49 25.49 301.54 23.38 301.42 20.68L301.38 19.18L301.42 17.64C301.52 14.94 302.46 12.83 304.23 11.3C306 9.78001 308.32 9.01001 311.17 9.01001C313.35 9.01001 315.17 9.40001 316.65 10.17C318.12 10.94 319.22 11.86 319.95 12.93C320.68 14 321.06 14.96 321.11 15.84C321.13 16.12 321.05 16.35 320.85 16.53C320.65 16.72 320.41 16.81 320.14 16.81H315.12C314.84 16.81 314.63 16.75 314.48 16.62C314.33 16.5 314.19 16.3 314.07 16.02C313.79 15.32 313.44 14.81 313 14.48C312.56 14.16 312.01 13.99 311.33 13.99C309.4 13.99 308.41 15.27 308.33 17.82L308.29 19.24L308.33 20.48C308.35 21.78 308.62 22.74 309.12 23.35C309.62 23.96 310.36 24.27 311.33 24.27C312.06 24.27 312.62 24.11 313.04 23.8C313.46 23.49 313.8 22.97 314.07 22.24C314.19 21.97 314.33 21.77 314.48 21.64C314.63 21.52 314.84 21.45 315.12 21.45H320.14C320.39 21.45 320.61 21.54 320.82 21.71C321.02 21.89 321.12 22.1 321.12 22.35C321.12 23.12 320.78 24.06 320.09 25.14C319.4 26.23 318.31 27.18 316.81 28.01C315.31 28.83 313.43 29.25 311.19 29.25C308.32 29.27 306.01 28.51 304.25 27V27Z" fill="white"/>
<path d="M342.48 9.66004C342.65 9.83004 342.74 10.06 342.74 10.33V27.95C342.74 28.2 342.65 28.42 342.48 28.61C342.3 28.8 342.08 28.89 341.8 28.89H336.96C336.68 28.89 336.45 28.8 336.27 28.63C336.08 28.46 335.99 28.23 335.99 27.96V22.71H333.44L330.4 28.33C330.22 28.71 329.94 28.89 329.54 28.89H324.81C324.56 28.89 324.36 28.81 324.21 28.66C324.06 28.51 323.98 28.34 323.98 28.14C323.98 27.94 324.04 27.76 324.17 27.62L327.88 21.47C326.83 20.92 326.03 20.18 325.48 19.26C324.93 18.34 324.66 17.25 324.66 16C324.66 13.88 325.37 12.24 326.78 11.11C328.19 9.97004 330.16 9.40004 332.69 9.40004H341.8C342.08 9.39004 342.31 9.48004 342.48 9.66004V9.66004ZM336.14 13.86H333.06C332.18 13.86 331.54 14.03 331.13 14.37C330.72 14.71 330.51 15.25 330.51 16C330.51 16.7 330.72 17.25 331.13 17.65C331.54 18.05 332.15 18.25 332.95 18.25H336.14V13.86Z" fill="white"/>
</g>
<defs>
<clipPath id="clip0_4_45">
<rect width="342.74" height="29.27" fill="white"/>
</clipPath>
</defs>
</svg>
