<svg width="36" height="47" viewBox="0 0 36 47" fill="none" xmlns="http://www.w3.org/2000/svg">
<g clip-path="url(#clip0_4_25)">
<path d="M12.6 32.19C12.34 31.93 12.2 31.62 12.2 31.27C12.2 30.65 12.22 30.19 12.27 29.88C12.58 28.08 13.27 26.45 14.35 25C15.43 23.55 16.89 21.92 18.74 20.12C20.1 18.8 21.14 17.69 21.84 16.79C22.54 15.89 22.92 15 22.96 14.12C23.09 12.85 22.69 11.81 21.74 11.02C20.79 10.23 19.62 9.83 18.21 9.83C14.95 9.83 12.95 11.39 12.21 14.51C11.99 15.04 11.73 15.43 11.42 15.7C11.11 15.96 10.67 16.1 10.1 16.1H1.52C1.08 16.1 0.72 15.94 0.43 15.61C0.14 15.27 0 14.84 0 14.32C0.09 11.94 0.86 9.66 2.31 7.46C3.76 5.26 5.92 3.47 8.77 2.08C11.63 0.69 15.04 0 19 0C23.05 0 26.33 0.63 28.86 1.88C31.39 3.13 33.2 4.66 34.3 6.46C35.4 8.26 35.95 10.09 35.95 11.94C35.95 14.18 35.44 16.14 34.43 17.81C33.42 19.48 31.97 21.35 30.08 23.42C28.89 24.74 27.99 25.8 27.38 26.59C26.76 27.38 26.26 28.24 25.86 29.16C25.68 29.56 25.53 30.11 25.4 30.81C25.05 31.47 24.73 31.93 24.44 32.2C24.15 32.46 23.77 32.6 23.29 32.6H13.53C13.17 32.59 12.86 32.46 12.6 32.19V32.19ZM12.5 46.38C12.17 46.07 12.01 45.68 12.01 45.19V37.34C12.01 36.86 12.18 36.45 12.5 36.12C12.83 35.79 13.24 35.62 13.72 35.62H22.56C23.04 35.62 23.45 35.79 23.78 36.12C24.11 36.45 24.27 36.86 24.27 37.34V45.19C24.27 45.67 24.11 46.07 23.78 46.38C23.45 46.69 23.04 46.84 22.56 46.84H13.72C13.24 46.84 12.83 46.68 12.5 46.38V46.38Z" fill="#A93439"/>
</g>
<defs>
<clipPath id="clip0_4_25">
<rect width="35.95" height="46.84" fill="white"/>
</clipPath>
</defs>
</svg>
