<svg width="630" height="70" viewBox="0 0 630 70" fill="none" xmlns="http://www.w3.org/2000/svg">
<path d="M208.55 19.1601C208.87 19.4801 209.03 19.8601 209.03 20.2901V58.8501C209.03 59.3301 208.87 59.7401 208.55 60.0601C208.23 60.3801 207.83 60.5401 207.34 60.5401H196.79C196.31 60.5401 195.9 60.3801 195.58 60.0601C195.26 59.7401 195.1 59.3401 195.1 58.8501V41.0601L188.5 52.5701C188.18 53.1601 187.84 53.6001 187.49 53.9001C187.14 54.2001 186.7 54.3401 186.16 54.3401H182.86C181.89 54.3401 181.09 53.7501 180.44 52.5701L173.84 41.1401V58.8501C173.84 59.3301 173.68 59.7401 173.36 60.0601C173.04 60.3801 172.66 60.5401 172.23 60.5401H161.69C161.21 60.5401 160.8 60.3801 160.48 60.0601C160.16 59.7401 160 59.3401 160 58.8501V20.2901C160 19.8601 160.16 19.4801 160.48 19.1601C160.8 18.8401 161.18 18.6801 161.61 18.6801H171.43C172.4 18.6801 173.17 19.1601 173.76 20.1301L184.47 39.1301L195.26 20.1301C195.85 19.1601 196.63 18.6801 197.59 18.6801H207.41C207.85 18.6801 208.23 18.8401 208.55 19.1601V19.1601Z" fill="white"/>
<path d="M257.58 19.2399C257.96 19.6199 258.14 20.1 258.14 20.69V58.5299C258.14 59.0699 257.95 59.5399 257.58 59.9399C257.2 60.3399 256.72 60.54 256.13 60.54H245.74C245.15 60.54 244.65 60.3499 244.25 59.9799C243.85 59.5999 243.65 59.1199 243.65 58.5299V47.2599H238.17L231.65 59.34C231.27 60.15 230.66 60.5499 229.8 60.5499H219.66C219.12 60.5499 218.69 60.39 218.37 60.07C218.05 59.75 217.89 59.3699 217.89 58.9399C217.89 58.5099 218.02 58.13 218.29 57.81L226.26 44.61C224.01 43.43 222.29 41.85 221.11 39.86C219.93 37.87 219.34 35.54 219.34 32.86C219.34 28.3 220.86 24.8 223.89 22.35C226.92 19.91 231.15 18.69 236.57 18.69H256.13C256.72 18.68 257.2 18.8699 257.58 19.2399V19.2399ZM243.97 28.26H237.37C235.49 28.26 234.11 28.62 233.22 29.35C232.33 30.08 231.89 31.2399 231.89 32.8499C231.89 34.3499 232.33 35.5299 233.22 36.3899C234.11 37.2499 235.41 37.68 237.12 37.68H243.96V28.26H243.97Z" fill="white"/>
<path d="M272.35 56.48C268.57 53.23 266.54 48.71 266.27 42.91L266.19 39.69L266.27 36.39C266.48 30.59 268.5 26.06 272.31 22.78C276.12 19.51 281.09 17.87 287.2 17.87C291.87 17.87 295.79 18.7 298.95 20.37C302.12 22.03 304.48 24.01 306.03 26.29C307.59 28.57 308.42 30.65 308.53 32.53C308.58 33.12 308.4 33.62 307.97 34.02C307.54 34.42 307.03 34.62 306.44 34.62H295.65C295.06 34.62 294.6 34.49 294.28 34.22C293.96 33.95 293.66 33.52 293.39 32.93C292.8 31.43 292.03 30.33 291.1 29.63C290.16 28.93 288.97 28.58 287.52 28.58C283.39 28.58 281.24 31.32 281.08 36.79L281 39.85L281.08 42.51C281.13 45.3 281.7 47.35 282.77 48.67C283.84 49.99 285.43 50.64 287.52 50.64C289.08 50.64 290.3 50.31 291.18 49.63C292.07 48.96 292.8 47.85 293.39 46.29C293.66 45.7 293.95 45.27 294.28 45C294.6 44.73 295.06 44.6 295.65 44.6H306.44C306.98 44.6 307.46 44.79 307.89 45.16C308.32 45.54 308.53 45.99 308.53 46.53C308.53 48.19 307.79 50.19 306.32 52.53C304.84 54.86 302.5 56.92 299.28 58.69C296.06 60.46 292.03 61.35 287.2 61.35C281.09 61.35 276.13 59.73 272.35 56.48V56.48Z" fill="white"/>
<path d="M320.01 56.64C316.39 53.5 314.41 49.03 314.09 43.24C314.04 42.54 314.01 41.34 314.01 39.62C314.01 37.9 314.04 36.7 314.09 36C314.41 30.31 316.44 25.87 320.17 22.68C323.9 19.49 329.04 17.89 335.59 17.89C342.14 17.89 347.28 19.49 351.01 22.68C354.74 25.87 356.77 30.32 357.09 36C357.2 37.4 357.25 38.6 357.25 39.62C357.25 40.64 357.2 41.85 357.09 43.24C356.77 49.04 354.8 53.51 351.17 56.64C347.55 59.78 342.35 61.35 335.59 61.35C328.83 61.35 323.63 59.78 320.01 56.64ZM340.5 49.15C341.57 47.78 342.19 45.68 342.35 42.83C342.4 42.29 342.43 41.22 342.43 39.61C342.43 38 342.4 36.93 342.35 36.39C342.19 33.6 341.57 31.51 340.5 30.11C339.43 28.71 337.79 28.02 335.59 28.02C333.39 28.02 331.75 28.72 330.68 30.11C329.61 31.51 328.99 33.6 328.83 36.39L328.75 39.61L328.83 42.83C328.99 45.68 329.61 47.78 330.68 49.15C331.75 50.52 333.39 51.2 335.59 51.2C337.79 51.2 339.43 50.52 340.5 49.15Z" fill="white"/>
<path d="M413.44 19.1601C413.76 19.4801 413.92 19.8601 413.92 20.2901V58.8501C413.92 59.3301 413.76 59.7401 413.44 60.0601C413.12 60.3801 412.72 60.5401 412.23 60.5401H401.68C401.2 60.5401 400.79 60.3801 400.47 60.0601C400.15 59.7401 399.99 59.3401 399.99 58.8501V41.0601L393.39 52.5701C393.07 53.1601 392.73 53.6001 392.38 53.9001C392.03 54.2001 391.59 54.3401 391.05 54.3401H387.75C386.78 54.3401 385.98 53.7501 385.33 52.5701L378.73 41.1401V58.8501C378.73 59.3301 378.57 59.7401 378.25 60.0601C377.93 60.3801 377.55 60.5401 377.12 60.5401H366.57C366.09 60.5401 365.68 60.3801 365.36 60.0601C365.04 59.7401 364.88 59.3401 364.88 58.8501V20.2901C364.88 19.8601 365.04 19.4801 365.36 19.1601C365.68 18.8401 366.06 18.6801 366.49 18.6801H376.31C377.28 18.6801 378.05 19.1601 378.64 20.1301L389.35 39.1301L400.14 20.1301C400.73 19.1601 401.51 18.6801 402.47 18.6801H412.29C412.75 18.6801 413.12 18.8401 413.44 19.1601V19.1601Z" fill="white"/>
</svg>
