<svg width="236" height="29" viewBox="0 0 236 29" fill="none" xmlns="http://www.w3.org/2000/svg">
<g clip-path="url(#clip0_4_13)">
<path d="M0.28 27.92C0.09 27.73 0 27.51 0 27.26V9.63995C0 9.36995 0.09 9.13995 0.28 8.96995C0.47 8.79995 0.69 8.69995 0.94 8.69995H9.83C12.76 8.69995 14.94 9.18995 16.37 10.16C17.81 11.14 18.53 12.51 18.53 14.28C18.53 15.16 18.35 15.9 18.01 16.51C17.66 17.12 17.16 17.65 16.51 18.1C17.33 18.53 17.98 19.11 18.44 19.84C18.9 20.58 19.13 21.43 19.13 22.41C19.13 24.24 18.4 25.65 16.95 26.67C15.5 27.68 13.31 28.19 10.39 28.19H0.94C0.69 28.2 0.47 28.11 0.28 27.92V27.92ZM9.97 16.28C11.57 16.28 12.37 15.68 12.37 14.48C12.37 13.88 12.16 13.46 11.75 13.22C11.34 12.98 10.74 12.86 9.97 12.86H6.37V16.27H9.97V16.28ZM10.05 24.04C11.67 24.04 12.49 23.48 12.49 22.35C12.49 21.73 12.29 21.28 11.89 21C11.49 20.73 10.88 20.59 10.05 20.59H6.38V24.04H10.05Z" fill="white"/>
<path d="M25.03 26.3099C23.27 24.7999 22.32 22.6899 22.2 19.9899L22.16 18.4899L22.2 16.9499C22.3 14.2499 23.24 12.1399 25.01 10.6099C26.78 9.08995 29.1 8.31995 31.95 8.31995C34.13 8.31995 35.95 8.70995 37.43 9.47995C38.9 10.2499 40 11.1699 40.73 12.2399C41.46 13.3099 41.84 14.2699 41.89 15.1499C41.91 15.4299 41.83 15.6599 41.63 15.8399C41.43 16.0299 41.19 16.1199 40.92 16.1199H35.9C35.62 16.1199 35.41 16.0599 35.26 15.9299C35.11 15.8099 34.97 15.6099 34.85 15.3299C34.57 14.6299 34.22 14.1199 33.78 13.7899C33.34 13.4699 32.79 13.2999 32.11 13.2999C30.18 13.2999 29.19 14.5799 29.11 17.1299L29.07 18.5499L29.11 19.7899C29.13 21.0899 29.4 22.0499 29.9 22.6599C30.4 23.2699 31.14 23.5799 32.11 23.5799C32.84 23.5799 33.4 23.4199 33.82 23.1099C34.24 22.7999 34.58 22.2799 34.85 21.5499C34.97 21.2799 35.11 21.0799 35.26 20.9499C35.41 20.8299 35.62 20.7599 35.9 20.7599H40.92C41.17 20.7599 41.39 20.8499 41.6 21.0199C41.8 21.1999 41.9 21.4099 41.9 21.6599C41.9 22.4299 41.56 23.3699 40.87 24.4499C40.18 25.5399 39.09 26.4899 37.59 27.3199C36.09 28.1399 34.21 28.5599 31.97 28.5599C29.1 28.5799 26.79 27.8199 25.03 26.3099V26.3099Z" fill="white"/>
<path d="M47.06 26.12C45.31 24.48 44.41 22.1 44.36 18.98V17.82C44.46 14.85 45.38 12.52 47.13 10.85C48.88 9.17997 51.24 8.33997 54.22 8.33997C56.37 8.33997 58.19 8.76997 59.68 9.62997C61.17 10.49 62.28 11.68 63.02 13.19C63.76 14.7 64.13 16.42 64.13 18.35V19.29C64.13 19.57 64.04 19.8 63.85 19.98C63.66 20.16 63.43 20.26 63.16 20.26H51.26V20.49C51.28 21.61 51.55 22.52 52.05 23.21C52.55 23.9 53.26 24.24 54.19 24.24C54.79 24.24 55.27 24.12 55.63 23.88C55.99 23.64 56.34 23.34 56.66 22.96C56.89 22.71 57.07 22.55 57.2 22.49C57.34 22.43 57.56 22.4 57.86 22.4H62.77C63 22.4 63.19 22.47 63.35 22.61C63.51 22.75 63.59 22.92 63.59 23.12C63.59 23.77 63.22 24.53 62.48 25.41C61.74 26.29 60.67 27.04 59.26 27.66C57.85 28.28 56.18 28.6 54.25 28.6C51.21 28.58 48.81 27.76 47.06 26.12V26.12ZM57.22 16.43V16.35C57.22 15.15 56.96 14.22 56.43 13.56C55.91 12.9 55.17 12.57 54.22 12.57C53.27 12.57 52.54 12.9 52.03 13.56C51.52 14.22 51.26 15.15 51.26 16.35V16.43H57.22Z" fill="white"/>
<path d="M87.32 8.96C87.5 9.14 87.6 9.35 87.6 9.6V27.26C87.6 27.51 87.51 27.73 87.34 27.92C87.16 28.11 86.94 28.2 86.66 28.2H81.97C81.69 28.2 81.46 28.11 81.28 27.94C81.09 27.77 81 27.54 81 27.27V17.1L73.69 27.6C73.41 28 73.06 28.2 72.64 28.2H68.44C68.19 28.2 67.97 28.11 67.78 27.92C67.59 27.73 67.5 27.51 67.5 27.26V9.64C67.5 9.37 67.59 9.14 67.78 8.97C67.97 8.8 68.19 8.71 68.44 8.71H73.13C73.4 8.71 73.64 8.8 73.82 8.97C74 9.14 74.1 9.37 74.1 9.64V19.8L81.41 9.3C81.68 8.9 82.03 8.7 82.46 8.7H86.66C86.91 8.7 87.13 8.79 87.32 8.96V8.96ZM72.86 4.67C71.76 3.66 71.21 2.34 71.21 0.71C71.21 0.51 71.27 0.34 71.4 0.2C71.52 0.07 71.7 0 71.92 0H75.11C75.34 0 75.51 0.07 75.63 0.21C75.75 0.35 75.82 0.52 75.82 0.72C75.82 2.02 76.51 2.67 77.88 2.67C79.28 2.67 79.98 2.02 79.98 0.72C79.98 0.52 80.04 0.35 80.17 0.21C80.3 0.07 80.47 0 80.7 0H83.85C84.08 0 84.25 0.07 84.38 0.21C84.5 0.35 84.57 0.52 84.57 0.72C84.57 2.34 84.02 3.66 82.92 4.68C81.82 5.7 80.15 6.2 77.9 6.2C75.65 6.2 73.96 5.68 72.86 4.67V4.67Z" fill="white"/>
<path d="M101.57 26.3099C99.81 24.7999 98.86 22.6899 98.74 19.9899L98.7 18.4899L98.74 16.9499C98.84 14.2499 99.78 12.1399 101.55 10.6099C103.32 9.08995 105.64 8.31995 108.49 8.31995C110.67 8.31995 112.49 8.70995 113.97 9.47995C115.44 10.2499 116.54 11.1699 117.27 12.2399C118 13.3099 118.38 14.2699 118.43 15.1499C118.45 15.4299 118.37 15.6599 118.17 15.8399C117.97 16.0299 117.73 16.1199 117.46 16.1199H112.44C112.16 16.1199 111.95 16.0599 111.8 15.9299C111.65 15.8099 111.51 15.6099 111.39 15.3299C111.11 14.6299 110.76 14.1199 110.32 13.7899C109.88 13.4699 109.33 13.2999 108.65 13.2999C106.72 13.2999 105.73 14.5799 105.65 17.1299L105.61 18.5499L105.65 19.7899C105.67 21.0899 105.94 22.0499 106.44 22.6599C106.94 23.2699 107.68 23.5799 108.65 23.5799C109.38 23.5799 109.94 23.4199 110.36 23.1099C110.78 22.7999 111.12 22.2799 111.39 21.5499C111.51 21.2799 111.65 21.0799 111.8 20.9499C111.95 20.8299 112.16 20.7599 112.44 20.7599H117.46C117.71 20.7599 117.93 20.8499 118.14 21.0199C118.34 21.1999 118.44 21.4099 118.44 21.6599C118.44 22.4299 118.1 23.3699 117.41 24.4499C116.72 25.5399 115.63 26.4899 114.13 27.3199C112.63 28.1399 110.75 28.5599 108.51 28.5599C105.63 28.5799 103.33 27.8199 101.57 26.3099V26.3099Z" fill="white"/>
<path d="M123.6 26.12C121.85 24.48 120.95 22.1 120.9 18.98V17.82C121 14.85 121.92 12.52 123.67 10.85C125.42 9.17997 127.78 8.33997 130.76 8.33997C132.91 8.33997 134.73 8.76997 136.22 9.62997C137.71 10.49 138.82 11.68 139.56 13.19C140.3 14.7 140.67 16.42 140.67 18.35V19.29C140.67 19.57 140.58 19.8 140.39 19.98C140.2 20.16 139.97 20.26 139.7 20.26H127.8V20.49C127.82 21.61 128.09 22.52 128.59 23.21C129.09 23.9 129.8 24.24 130.73 24.24C131.33 24.24 131.81 24.12 132.17 23.88C132.53 23.64 132.88 23.34 133.2 22.96C133.43 22.71 133.61 22.55 133.74 22.49C133.88 22.43 134.1 22.4 134.4 22.4H139.31C139.54 22.4 139.73 22.47 139.89 22.61C140.05 22.75 140.13 22.92 140.13 23.12C140.13 23.77 139.76 24.53 139.02 25.41C138.28 26.29 137.21 27.04 135.8 27.66C134.39 28.28 132.72 28.6 130.79 28.6C127.75 28.58 125.35 27.76 123.6 26.12V26.12ZM133.76 16.43V16.35C133.76 15.15 133.5 14.22 132.97 13.56C132.45 12.9 131.71 12.57 130.76 12.57C129.81 12.57 129.08 12.9 128.57 13.56C128.06 14.22 127.8 15.15 127.8 16.35V16.43H133.76Z" fill="white"/>
<path d="M166.65 8.92995C166.8 9.07995 166.88 9.25995 166.88 9.44995V27.41C166.88 27.64 166.8 27.82 166.65 27.97C166.5 28.12 166.31 28.2 166.09 28.2H161.18C160.95 28.2 160.77 28.12 160.62 27.97C160.47 27.82 160.39 27.63 160.39 27.41V19.12L157.32 24.48C157.17 24.76 157.01 24.96 156.85 25.1C156.69 25.24 156.48 25.31 156.23 25.31H154.69C154.24 25.31 153.86 25.04 153.57 24.49L150.49 19.16V27.41C150.49 27.64 150.42 27.82 150.26 27.97C150.11 28.12 149.93 28.2 149.74 28.2H144.83C144.61 28.2 144.42 28.12 144.27 27.97C144.12 27.82 144.05 27.63 144.05 27.41V9.44995C144.05 9.24995 144.12 9.06995 144.27 8.92995C144.42 8.77995 144.59 8.69995 144.8 8.69995H149.37C149.82 8.69995 150.18 8.92995 150.46 9.36995L155.45 18.22L160.47 9.36995C160.74 8.91995 161.11 8.69995 161.56 8.69995H166.14C166.32 8.69995 166.5 8.77995 166.65 8.92995V8.92995Z" fill="white"/>
<path d="M171.62 27.92C171.43 27.73 171.34 27.51 171.34 27.26V9.63996C171.34 9.36996 171.43 9.13996 171.62 8.96996C171.81 8.79996 172.03 8.70996 172.28 8.70996H177C177.27 8.70996 177.5 8.79996 177.68 8.96996C177.85 9.13996 177.94 9.36996 177.94 9.63996V14.66H181.47C183.97 14.66 185.92 15.27 187.32 16.48C188.72 17.69 189.42 19.36 189.42 21.49C189.42 23.66 188.71 25.33 187.28 26.48C185.85 27.63 183.85 28.21 181.28 28.21H172.28C172.02 28.2 171.8 28.11 171.62 27.92V27.92ZM180.86 23.74C181.78 23.74 182.47 23.57 182.9 23.22C183.33 22.87 183.56 22.3 183.56 21.49C183.56 19.89 182.66 19.09 180.86 19.09H177.82V23.74H180.86Z" fill="white"/>
<path d="M212.3 8.95995C212.49 9.12995 212.58 9.34995 212.58 9.59995V27.26C212.58 27.51 212.49 27.73 212.32 27.92C212.14 28.11 211.92 28.2 211.64 28.2H206.95C206.67 28.2 206.44 28.11 206.26 27.94C206.07 27.77 205.98 27.54 205.98 27.27V17.1L198.67 27.6C198.39 28 198.04 28.2 197.62 28.2H193.42C193.17 28.2 192.95 28.11 192.76 27.92C192.57 27.73 192.48 27.51 192.48 27.26V9.63995C192.48 9.36995 192.57 9.13995 192.76 8.96995C192.95 8.79995 193.17 8.70995 193.42 8.70995H198.11C198.38 8.70995 198.62 8.79995 198.8 8.96995C198.98 9.13995 199.08 9.36995 199.08 9.63995V19.8L206.39 9.29995C206.66 8.89995 207.01 8.69995 207.44 8.69995H211.64C211.9 8.69995 212.11 8.78995 212.3 8.95995Z" fill="white"/>
<path d="M222.6 19.88C222.45 19.73 222.37 19.56 222.37 19.36C222.37 19.01 222.38 18.75 222.41 18.57C222.58 17.55 222.98 16.62 223.59 15.8C224.2 14.98 225.03 14.05 226.08 13.03C226.85 12.28 227.44 11.65 227.84 11.14C228.24 10.63 228.45 10.12 228.48 9.61997C228.55 8.89997 228.32 8.30997 227.79 7.85997C227.25 7.40997 226.58 7.17997 225.78 7.17997C223.93 7.17997 222.79 8.06997 222.37 9.83997C222.25 10.14 222.09 10.36 221.92 10.51C221.74 10.66 221.49 10.74 221.17 10.74H216.29C216.04 10.74 215.83 10.65 215.67 10.46C215.51 10.27 215.43 10.03 215.43 9.72997C215.48 8.37997 215.92 7.07997 216.74 5.82997C217.57 4.57997 218.79 3.55997 220.42 2.76997C222.04 1.97997 223.98 1.58997 226.23 1.58997C228.53 1.58997 230.4 1.94997 231.84 2.65997C233.28 3.36997 234.31 4.23997 234.93 5.26997C235.55 6.29997 235.87 7.32997 235.87 8.37997C235.87 9.64997 235.58 10.77 235.01 11.72C234.43 12.67 233.61 13.73 232.53 14.91C231.86 15.66 231.34 16.26 230.99 16.71C230.64 17.16 230.35 17.65 230.13 18.17C230.03 18.39 229.94 18.71 229.87 19.11C229.67 19.49 229.49 19.75 229.33 19.9C229.17 20.05 228.95 20.13 228.67 20.13H223.12C222.92 20.1 222.75 20.03 222.6 19.88V19.88ZM222.54 27.94C222.35 27.77 222.26 27.54 222.26 27.27V22.8C222.26 22.53 222.35 22.29 222.54 22.11C222.73 21.93 222.96 21.83 223.23 21.83H228.25C228.52 21.83 228.76 21.92 228.94 22.11C229.12 22.3 229.22 22.53 229.22 22.8V27.26C229.22 27.54 229.13 27.76 228.94 27.93C228.75 28.11 228.52 28.19 228.25 28.19H223.23C222.96 28.2 222.73 28.11 222.54 27.94V27.94Z" fill="white"/>
</g>
<defs>
<clipPath id="clip0_4_13">
<rect width="235.87" height="28.58" fill="white"/>
</clipPath>
</defs>
</svg>
