<svg width="388" height="27" viewBox="0 0 388 27" fill="none" xmlns="http://www.w3.org/2000/svg">
<g clip-path="url(#clip0_4_27)">
<path d="M2.79 18.06C1.1 16.6 0.18 14.52 0.03 11.82C0.01 11.49 0 10.93 0 10.12C0 9.32 0.01 8.76 0.04 8.43C0.19 5.78 1.13 3.71 2.87 2.22C4.61 0.74 7 0 10.05 0C13.1 0 15.49 0.74 17.23 2.23C18.97 3.72 19.91 5.79 20.06 8.44C20.11 9.09 20.14 9.65 20.14 10.13C20.14 10.61 20.11 11.17 20.06 11.82C19.91 14.52 18.99 16.6 17.3 18.06C15.61 19.52 13.19 20.25 10.04 20.25C6.9 20.25 4.48 19.52 2.79 18.06V18.06ZM12.34 14.57C12.84 13.93 13.13 12.95 13.2 11.63C13.22 11.38 13.24 10.88 13.24 10.13C13.24 9.38 13.23 8.88 13.2 8.63C13.12 7.33 12.84 6.36 12.34 5.71C11.84 5.06 11.08 4.73 10.05 4.73C9.02 4.73 8.26 5.06 7.76 5.71C7.26 6.35 6.98 7.33 6.9 8.62L6.86 10.12L6.9 11.62C6.98 12.95 7.26 13.93 7.76 14.56C8.26 15.2 9.02 15.52 10.05 15.52C11.07 15.52 11.84 15.21 12.34 14.57V14.57Z" fill="white"/>
<path d="M34.65 19.33C33.32 18.72 32.37 17.98 31.78 17.12C31.19 16.26 30.85 15.39 30.75 14.51V14.43C30.75 14.28 30.83 14.14 30.98 14.02C31.13 13.9 31.28 13.83 31.43 13.83H36C36.27 13.83 36.48 13.87 36.62 13.96C36.76 14.05 36.89 14.19 37.01 14.39C37.21 14.84 37.55 15.17 38.02 15.38C38.49 15.59 39.14 15.7 39.97 15.7C40.82 15.7 41.48 15.54 41.94 15.23C42.4 14.92 42.63 14.44 42.63 13.79C42.63 13.19 42.45 12.73 42.09 12.42C41.73 12.11 41.12 11.95 40.27 11.95H38.17C37.95 11.95 37.75 11.87 37.59 11.71C37.43 11.55 37.35 11.35 37.35 11.13V8.89C37.35 8.66 37.42 8.47 37.58 8.31C37.73 8.15 37.93 8.07 38.18 8.07H40.17C40.92 8.07 41.46 7.94 41.8 7.68C42.13 7.41 42.3 7 42.3 6.45C42.3 5.9 42.1 5.45 41.7 5.1C41.3 4.75 40.67 4.58 39.82 4.58C38.99 4.58 38.39 4.69 38 4.92C37.61 5.15 37.29 5.52 37.04 6.04C36.92 6.24 36.78 6.38 36.65 6.47C36.51 6.56 36.31 6.6 36.03 6.6H31.6C31.4 6.6 31.23 6.53 31.09 6.39C30.95 6.25 30.9 6.1 30.92 5.92C31.02 4.97 31.37 4.04 31.97 3.15C32.57 2.25 33.52 1.5 34.82 0.9C36.14 0.3 37.82 0 39.9 0C42.92 0 45.14 0.51 46.54 1.54C47.94 2.57 48.64 3.9 48.64 5.55C48.64 7.48 47.83 8.83 46.2 9.6C48.15 10.3 49.15 11.89 49.2 14.36C49.2 16.16 48.37 17.59 46.71 18.65C45.05 19.71 42.78 20.24 39.9 20.24C37.72 20.25 35.97 19.94 34.65 19.33V19.33Z" fill="white"/>
<path d="M51.69 23.74C51.5 23.57 51.41 23.34 51.41 23.07V15.72C51.41 15.45 51.5 15.22 51.69 15.05C51.88 14.88 52.11 14.79 52.38 14.79H52.76C53.66 14.79 54.28 14.13 54.64 12.82C55 11.51 55.16 9.46 55.16 6.69V1.31C55.16 1.04 55.25 0.810005 55.44 0.640005C55.63 0.470005 55.86 0.380005 56.13 0.380005H71.13C71.4 0.380005 71.63 0.470005 71.81 0.640005C71.98 0.810005 72.07 1.04 72.07 1.31V14.73H73.65C73.92 14.73 74.16 14.82 74.34 15.01C74.52 15.2 74.62 15.43 74.62 15.7V23.05C74.62 23.32 74.53 23.55 74.34 23.72C74.15 23.89 73.92 24 73.65 24H68.96C68.71 24 68.49 23.91 68.3 23.74C68.11 23.57 68.02 23.34 68.02 23.07V19.88H58.01V23.07C58.01 23.34 57.92 23.57 57.75 23.74C57.57 23.91 57.35 24 57.07 24H52.38C52.11 24 51.88 23.91 51.69 23.74V23.74ZM65.47 14.74V5.48H61.42V7.39C61.42 10.84 60.99 13.3 60.15 14.78L65.47 14.74Z" fill="white"/>
<path d="M79.59 18.06C77.9 16.6 76.98 14.52 76.83 11.82C76.8 11.5 76.79 10.93 76.79 10.13C76.79 9.33 76.8 8.77 76.83 8.44C76.98 5.79 77.92 3.72 79.66 2.23C81.4 0.74 83.8 0 86.85 0C89.9 0 92.29 0.74 94.03 2.23C95.77 3.72 96.71 5.79 96.86 8.44C96.91 9.09 96.94 9.65 96.94 10.13C96.94 10.61 96.91 11.17 96.86 11.82C96.71 14.52 95.79 16.6 94.1 18.06C92.41 19.52 89.99 20.25 86.84 20.25C83.7 20.25 81.28 19.52 79.59 18.06V18.06ZM89.14 14.57C89.64 13.93 89.93 12.95 90 11.63C90.02 11.38 90.04 10.88 90.04 10.13C90.04 9.38 90.02 8.88 90 8.62C89.92 7.32 89.64 6.35 89.14 5.7C88.64 5.05 87.88 4.72 86.85 4.72C85.82 4.72 85.06 5.05 84.56 5.7C84.06 6.35 83.77 7.32 83.7 8.62L83.66 10.12L83.7 11.62C83.78 12.95 84.06 13.93 84.56 14.56C85.06 15.2 85.82 15.52 86.85 15.52C87.87 15.52 88.64 15.21 89.14 14.57V14.57Z" fill="white"/>
<path d="M100.78 26.74C100.59 26.57 100.5 26.34 100.5 26.07V1.31C100.5 1.04 100.59 0.81 100.78 0.64C100.97 0.47 101.2 0.38 101.47 0.38H105.93C106.2 0.38 106.43 0.47 106.6 0.64C106.77 0.81 106.86 1.04 106.86 1.31V2.66C108.21 0.89 110.15 0 112.67 0C115.09 0 117 0.76 118.39 2.27C119.78 3.78 120.52 5.94 120.62 8.74C120.64 9.07 120.66 9.53 120.66 10.13C120.66 10.73 120.65 11.21 120.62 11.55C120.52 14.25 119.77 16.38 118.37 17.93C116.97 19.48 115.07 20.26 112.67 20.26C110.24 20.26 108.43 19.43 107.23 17.78V26.07C107.23 26.34 107.14 26.57 106.97 26.74C106.79 26.91 106.57 27 106.3 27H101.46C101.2 27 100.97 26.91 100.78 26.74V26.74ZM112.93 14.04C113.42 13.38 113.7 12.46 113.77 11.28C113.79 11.03 113.81 10.64 113.81 10.12C113.81 9.6 113.8 9.21 113.77 8.96C113.69 7.79 113.41 6.87 112.93 6.2C112.44 5.54 111.64 5.21 110.51 5.21C109.43 5.21 108.63 5.55 108.11 6.24C107.59 6.93 107.3 7.8 107.25 8.85C107.22 9.18 107.21 9.65 107.21 10.27C107.21 10.87 107.22 11.33 107.25 11.66C107.3 12.64 107.59 13.44 108.13 14.08C108.67 14.72 109.46 15.04 110.51 15.04C111.64 15.04 112.44 14.71 112.93 14.04V14.04Z" fill="white"/>
<path d="M126.39 18.06C124.7 16.6 123.78 14.52 123.63 11.82C123.6 11.5 123.59 10.93 123.59 10.13C123.59 9.33 123.6 8.77 123.63 8.44C123.78 5.79 124.72 3.72 126.46 2.23C128.2 0.74 130.6 0 133.65 0C136.7 0 139.09 0.74 140.83 2.23C142.57 3.72 143.51 5.79 143.66 8.44C143.71 9.09 143.74 9.65 143.74 10.13C143.74 10.61 143.71 11.17 143.66 11.82C143.51 14.52 142.59 16.6 140.9 18.06C139.21 19.52 136.79 20.25 133.64 20.25C130.5 20.25 128.08 19.52 126.39 18.06V18.06ZM135.94 14.57C136.44 13.93 136.73 12.95 136.8 11.63C136.82 11.38 136.84 10.88 136.84 10.13C136.84 9.38 136.83 8.88 136.8 8.63C136.72 7.33 136.44 6.36 135.94 5.71C135.44 5.06 134.68 4.73 133.65 4.73C132.62 4.73 131.86 5.06 131.36 5.71C130.86 6.36 130.57 7.33 130.5 8.63L130.46 10.13L130.5 11.63C130.58 12.96 130.86 13.94 131.36 14.57C131.86 15.21 132.62 15.53 133.65 15.53C134.67 15.52 135.44 15.21 135.94 14.57V14.57Z" fill="white"/>
<path d="M147.58 19.59C147.39 19.4 147.3 19.18 147.3 18.93V1.31C147.3 1.04 147.39 0.810005 147.58 0.640005C147.77 0.470005 147.99 0.380005 148.24 0.380005H157.13C160.06 0.380005 162.24 0.870005 163.67 1.84C165.11 2.82 165.83 4.19 165.83 5.96C165.83 6.84 165.65 7.58 165.31 8.19C164.96 8.8 164.46 9.33 163.81 9.78C164.63 10.21 165.28 10.79 165.74 11.52C166.2 12.26 166.43 13.11 166.43 14.09C166.43 15.92 165.7 17.33 164.25 18.35C162.8 19.36 160.61 19.87 157.69 19.87H148.24C147.99 19.88 147.77 19.78 147.58 19.59V19.59ZM157.27 7.95C158.87 7.95 159.67 7.35 159.67 6.15C159.67 5.55 159.46 5.13 159.05 4.89C158.64 4.65 158.04 4.53 157.27 4.53H153.67V7.94H157.27V7.95ZM157.35 15.71C158.97 15.71 159.79 15.15 159.79 14.02C159.79 13.4 159.59 12.95 159.19 12.67C158.79 12.4 158.18 12.26 157.35 12.26H153.68V15.71H157.35Z" fill="white"/>
<path d="M172.29 18.06C170.6 16.6 169.68 14.52 169.53 11.82C169.5 11.5 169.49 10.93 169.49 10.13C169.49 9.33 169.5 8.77 169.53 8.44C169.68 5.79 170.62 3.72 172.36 2.23C174.1 0.74 176.5 0 179.55 0C182.6 0 184.99 0.74 186.73 2.23C188.47 3.72 189.41 5.79 189.56 8.44C189.61 9.09 189.64 9.65 189.64 10.13C189.64 10.61 189.61 11.17 189.56 11.82C189.41 14.52 188.49 16.6 186.8 18.06C185.11 19.52 182.69 20.25 179.54 20.25C176.4 20.25 173.98 19.52 172.29 18.06V18.06ZM181.84 14.57C182.34 13.93 182.63 12.95 182.7 11.63C182.72 11.38 182.74 10.88 182.74 10.13C182.74 9.38 182.73 8.88 182.7 8.63C182.62 7.33 182.34 6.36 181.84 5.71C181.34 5.06 180.58 4.73 179.55 4.73C178.52 4.73 177.76 5.06 177.26 5.71C176.76 6.36 176.47 7.33 176.4 8.63L176.36 10.13L176.4 11.63C176.48 12.96 176.76 13.94 177.26 14.57C177.76 15.21 178.52 15.53 179.55 15.53C180.57 15.52 181.34 15.21 181.84 14.57V14.57Z" fill="white"/>
<path d="M215.81 0.599995C215.96 0.749995 216.04 0.929995 216.04 1.12V19.08C216.04 19.31 215.96 19.49 215.81 19.64C215.66 19.79 215.47 19.87 215.25 19.87H210.34C210.11 19.87 209.93 19.79 209.78 19.64C209.63 19.49 209.55 19.3 209.55 19.08V10.8L206.48 16.16C206.33 16.44 206.17 16.64 206.01 16.78C205.85 16.92 205.64 16.99 205.39 16.99H203.85C203.4 16.99 203.02 16.72 202.73 16.17L199.65 10.84V19.09C199.65 19.32 199.58 19.5 199.42 19.65C199.27 19.8 199.09 19.88 198.9 19.88H193.99C193.77 19.88 193.58 19.8 193.43 19.65C193.28 19.5 193.21 19.31 193.21 19.09V1.12C193.21 0.919995 193.28 0.739995 193.43 0.599995C193.58 0.449995 193.75 0.369995 193.96 0.369995H198.53C198.98 0.369995 199.34 0.599995 199.62 1.04L204.61 9.89L209.63 1.04C209.9 0.589995 210.27 0.369995 210.72 0.369995H215.3C215.49 0.379995 215.66 0.449995 215.81 0.599995V0.599995Z" fill="white"/>
<path d="M228.65 19.59C228.46 19.4 228.37 19.18 228.37 18.93V1.31C228.37 1.04 228.46 0.810005 228.65 0.640005C228.84 0.470005 229.06 0.380005 229.31 0.380005H246.75C247.02 0.380005 247.25 0.470005 247.42 0.640005C247.59 0.810005 247.68 1.04 247.68 1.31V18.93C247.68 19.18 247.59 19.4 247.42 19.59C247.24 19.78 247.02 19.87 246.75 19.87H242.06C241.81 19.87 241.59 19.78 241.4 19.59C241.21 19.4 241.12 19.18 241.12 18.93V5.48H234.97V18.94C234.97 19.22 234.88 19.44 234.69 19.61C234.5 19.79 234.27 19.87 234 19.87H229.31C229.06 19.88 228.84 19.78 228.65 19.59V19.59Z" fill="white"/>
<path d="M271.97 0.639995C272.16 0.809995 272.25 1.03 272.25 1.28V18.94C272.25 19.19 272.16 19.41 271.99 19.6C271.81 19.79 271.59 19.88 271.31 19.88H266.62C266.34 19.88 266.11 19.79 265.93 19.62C265.74 19.45 265.65 19.22 265.65 18.95V8.77L258.34 19.27C258.06 19.67 257.71 19.87 257.29 19.87H253.09C252.84 19.87 252.62 19.78 252.43 19.59C252.24 19.4 252.15 19.18 252.15 18.93V1.31C252.15 1.04 252.24 0.809995 252.43 0.639995C252.62 0.469995 252.84 0.379995 253.09 0.379995H257.78C258.05 0.379995 258.29 0.469995 258.47 0.639995C258.65 0.809995 258.75 1.04 258.75 1.31V11.47L266.06 0.969995C266.33 0.569995 266.68 0.369995 267.11 0.369995H271.31C271.56 0.379995 271.78 0.459995 271.97 0.639995V0.639995Z" fill="white"/>
<path d="M281.42 19.61C281.23 19.44 281.14 19.21 281.14 18.94V5.48H275.55C275.27 5.48 275.04 5.39 274.86 5.22C274.67 5.05 274.58 4.82 274.58 4.55V1.31C274.58 1.04 274.67 0.810005 274.86 0.640005C275.05 0.470005 275.28 0.380005 275.55 0.380005H293.25C293.52 0.380005 293.75 0.470005 293.92 0.640005C294.09 0.810005 294.18 1.04 294.18 1.31V4.54C294.18 4.79 294.09 5.01 293.92 5.2C293.74 5.39 293.52 5.48 293.25 5.48H287.63V18.94C287.63 19.19 287.54 19.41 287.37 19.6C287.19 19.79 286.97 19.88 286.7 19.88H282.12C281.83 19.88 281.6 19.79 281.42 19.61V19.61Z" fill="white"/>
<path d="M299.15 19.48C298.06 18.97 297.21 18.26 296.6 17.36C295.99 16.46 295.68 15.47 295.68 14.4C295.68 12.7 296.39 11.32 297.8 10.26C299.21 9.2 301.16 8.47 303.63 8.07L308.28 7.36V6.9C308.28 5.98 308.09 5.3 307.72 4.88C307.34 4.46 306.71 4.24 305.81 4.24C305.31 4.24 304.89 4.33 304.55 4.5C304.21 4.68 303.83 4.94 303.41 5.29C303.08 5.57 302.8 5.77 302.55 5.89C302.45 6.06 302.33 6.15 302.17 6.15H297.82C297.57 6.15 297.36 6.07 297.2 5.91C297.04 5.75 296.97 5.55 296.99 5.33C297.01 4.65 297.35 3.9 298 3.06C298.65 2.22 299.64 1.5 300.96 0.9C302.28 0.3 303.92 0 305.87 0C308.97 0 311.27 0.68 312.77 2.04C314.27 3.4 315.02 5.25 315.02 7.57V18.93C315.02 19.18 314.93 19.4 314.76 19.59C314.58 19.78 314.36 19.87 314.09 19.87H309.48C309.23 19.87 309.01 19.78 308.82 19.59C308.63 19.4 308.54 19.18 308.54 18.93V17.62C307.99 18.4 307.23 19.03 306.25 19.51C305.27 20 304.11 20.24 302.76 20.24C301.45 20.25 300.24 19.99 299.15 19.48V19.48ZM307.33 14.74C308.02 14.02 308.36 12.97 308.36 11.59V11.14L305.25 11.66C303.15 12.06 302.1 12.81 302.1 13.91C302.1 14.49 302.34 14.95 302.83 15.3C303.32 15.65 303.92 15.83 304.65 15.83C305.75 15.83 306.64 15.46 307.33 14.74Z" fill="white"/>
<path d="M319.4 19.59C319.21 19.4 319.12 19.18 319.12 18.93V1.31C319.12 1.04 319.21 0.810005 319.4 0.640005C319.59 0.470005 319.81 0.380005 320.06 0.380005H324.75C325.02 0.380005 325.26 0.470005 325.44 0.640005C325.62 0.810005 325.72 1.04 325.72 1.31V7.42H332.1V1.31C332.1 1.04 332.19 0.810005 332.38 0.640005C332.57 0.470005 332.8 0.380005 333.07 0.380005H337.76C338.03 0.380005 338.26 0.470005 338.44 0.640005C338.61 0.810005 338.7 1.04 338.7 1.31V18.93C338.7 19.18 338.61 19.4 338.44 19.59C338.26 19.78 338.04 19.87 337.76 19.87H333.07C332.79 19.87 332.56 19.78 332.38 19.61C332.19 19.44 332.1 19.21 332.1 18.94V12.53H325.72V18.94C325.72 19.22 325.63 19.44 325.44 19.61C325.25 19.79 325.02 19.87 324.75 19.87H320.06C319.81 19.88 319.59 19.78 319.4 19.59Z" fill="white"/>
<path d="M362.98 0.639995C363.17 0.809995 363.26 1.03 363.26 1.28V18.94C363.26 19.19 363.17 19.41 363 19.6C362.82 19.79 362.6 19.88 362.32 19.88H357.63C357.35 19.88 357.12 19.79 356.94 19.62C356.75 19.45 356.66 19.22 356.66 18.95V8.77L349.35 19.27C349.07 19.67 348.72 19.87 348.3 19.87H344.1C343.85 19.87 343.63 19.78 343.44 19.59C343.25 19.4 343.16 19.18 343.16 18.93V1.31C343.16 1.04 343.25 0.809995 343.44 0.639995C343.63 0.469995 343.85 0.379995 344.1 0.379995H348.79C349.06 0.379995 349.3 0.469995 349.48 0.639995C349.66 0.809995 349.76 1.04 349.76 1.31V11.47L357.07 0.969995C357.34 0.569995 357.69 0.369995 358.12 0.369995H362.32C362.57 0.379995 362.79 0.459995 362.98 0.639995V0.639995Z" fill="white"/>
<path d="M387.01 0.639995C387.2 0.809995 387.29 1.03 387.29 1.28V18.94C387.29 19.19 387.2 19.41 387.03 19.6C386.85 19.79 386.63 19.88 386.35 19.88H381.66C381.38 19.88 381.15 19.79 380.97 19.62C380.78 19.45 380.69 19.22 380.69 18.95V8.77L373.38 19.27C373.1 19.67 372.75 19.87 372.33 19.87H368.13C367.88 19.87 367.66 19.78 367.47 19.59C367.28 19.4 367.19 19.18 367.19 18.93V1.31C367.19 1.04 367.28 0.809995 367.47 0.639995C367.66 0.469995 367.88 0.379995 368.13 0.379995H372.82C373.09 0.379995 373.33 0.469995 373.51 0.639995C373.69 0.809995 373.79 1.04 373.79 1.31V11.47L381.1 0.969995C381.37 0.569995 381.72 0.369995 382.15 0.369995H386.35C386.61 0.379995 386.83 0.459995 387.01 0.639995V0.639995Z" fill="white"/>
</g>
<defs>
<clipPath id="clip0_4_27">
<rect width="387.29" height="27" fill="white"/>
</clipPath>
</defs>
</svg>
